<svg width="24" height="24" viewBox="0 0 24 24" fill="none" xmlns="http://www.w3.org/2000/svg">
<g clip-path="url(#clip0_19_4)">
<g filter="url(#filter0_d_19_4)">
<circle cx="12" cy="12" r="12" fill="#828282"/>
</g>
<path d="M12 12C11.3125 12 10.724 11.7552 10.2344 11.2656C9.74479 10.776 9.5 10.1875 9.5 9.5C9.5 8.8125 9.74479 8.22396 10.2344 7.73438C10.724 7.24479 11.3125 7 12 7C12.6875 7 13.276 7.24479 13.7656 7.73438C14.2552 8.22396 14.5 8.8125 14.5 9.5C14.5 10.1875 14.2552 10.776 13.7656 11.2656C13.276 11.7552 12.6875 12 12 12ZM7 15.75V15.25C7 14.8958 7.09115 14.5703 7.27344 14.2734C7.45573 13.9766 7.69792 13.75 8 13.5938C8.64583 13.2708 9.30208 13.0286 9.96875 12.8672C10.6354 12.7057 11.3125 12.625 12 12.625C12.6875 12.625 13.3646 12.7057 14.0312 12.8672C14.6979 13.0286 15.3542 13.2708 16 13.5938C16.3021 13.75 16.5443 13.9766 16.7266 14.2734C16.9089 14.5703 17 14.8958 17 15.25V15.75C17 16.0938 16.8776 16.388 16.6328 16.6328C16.388 16.8776 16.0938 17 15.75 17H8.25C7.90625 17 7.61198 16.8776 7.36719 16.6328C7.1224 16.388 7 16.0938 7 15.75Z" fill="white" fill-opacity="0.83"/>
</g>
<defs>
<filter id="filter0_d_19_4" x="-4" y="0" width="32" height="32" filterUnits="userSpaceOnUse" color-interpolation-filters="sRGB">
<feFlood flood-opacity="0" result="BackgroundImageFix"/>
<feColorMatrix in="SourceAlpha" type="matrix" values="0 0 0 0 0 0 0 0 0 0 0 0 0 0 0 0 0 0 127 0" result="hardAlpha"/>
<feOffset dy="4"/>
<feGaussianBlur stdDeviation="2"/>
<feComposite in2="hardAlpha" operator="out"/>
<feColorMatrix type="matrix" values="0 0 0 0 0 0 0 0 0 0 0 0 0 0 0 0 0 0 0.25 0"/>
<feBlend mode="normal" in2="BackgroundImageFix" result="effect1_dropShadow_19_4"/>
<feBlend mode="normal" in="SourceGraphic" in2="effect1_dropShadow_19_4" result="shape"/>
</filter>
<clipPath id="clip0_19_4">
<rect width="24" height="24" fill="white"/>
</clipPath>
</defs>
</svg>
